<mxfile host="app.diagrams.net" agent="Mozilla/5.0 (Windows NT 10.0; Win64; x64) AppleWebKit/537.36 (KHTML, like Gecko) Chrome/135.0.0.0 Safari/537.36" version="26.2.12">
  <diagram id="hxaA7ptd2vcBufkKbSyP" name="第 6 页">
    <mxGraphModel dx="4587" dy="3251" grid="1" gridSize="10" guides="1" tooltips="1" connect="1" arrows="1" fold="1" page="1" pageScale="1" pageWidth="827" pageHeight="1169" math="0" shadow="0">
      <root>
        <mxCell id="0" />
        <mxCell id="1" parent="0" />
        <mxCell id="TnUPEMsU65kMXo9H1k3O-1" value="核心内网区域" style="whiteSpace=wrap;strokeWidth=2;verticalAlign=top;" vertex="1" parent="1">
          <mxGeometry x="-360" y="-130" width="3310" height="1610" as="geometry" />
        </mxCell>
        <mxCell id="TnUPEMsU65kMXo9H1k3O-5" value=" 开发/运维人员" style="whiteSpace=wrap;strokeWidth=2;" vertex="1" parent="TnUPEMsU65kMXo9H1k3O-1">
          <mxGeometry x="2783" y="83.3006244424621" width="164" height="77.55575379125781" as="geometry" />
        </mxCell>
        <mxCell id="TnUPEMsU65kMXo9H1k3O-6" value=" A10 负载均衡 (AFA5)" style="whiteSpace=wrap;strokeWidth=2;" vertex="1" parent="TnUPEMsU65kMXo9H1k3O-1">
          <mxGeometry x="2762" y="317.40410347903656" width="206" height="77.55575379125781" as="geometry" />
        </mxCell>
        <mxCell id="TnUPEMsU65kMXo9H1k3O-7" value="ESB (外部系统接口, 非A平台组件)" style="whiteSpace=wrap;strokeWidth=2;" vertex="1" parent="TnUPEMsU65kMXo9H1k3O-1">
          <mxGeometry x="3023" y="66.06601248884924" width="260" height="112.0249776984835" as="geometry" />
        </mxCell>
        <mxCell id="TnUPEMsU65kMXo9H1k3O-8" value=" A10 负载均衡 (网关)" style="whiteSpace=wrap;strokeWidth=2;" vertex="1" parent="TnUPEMsU65kMXo9H1k3O-1">
          <mxGeometry x="3051" y="317.40410347903656" width="204" height="77.55575379125781" as="geometry" />
        </mxCell>
        <mxCell id="TnUPEMsU65kMXo9H1k3O-9" value=" AFA节点" style="whiteSpace=wrap;strokeWidth=2;" vertex="1" parent="TnUPEMsU65kMXo9H1k3O-1">
          <mxGeometry x="102" y="735.3434433541481" width="118" height="77.55575379125781" as="geometry" />
        </mxCell>
        <mxCell id="TnUPEMsU65kMXo9H1k3O-10" value=" 注册中心 (Eureka)" style="whiteSpace=wrap;strokeWidth=2;" vertex="1" parent="TnUPEMsU65kMXo9H1k3O-1">
          <mxGeometry x="2860" y="1311.2667261373774" width="189" height="77.55575379125781" as="geometry" />
        </mxCell>
        <mxCell id="TnUPEMsU65kMXo9H1k3O-11" value=" 调度中心 (CMC)" style="whiteSpace=wrap;strokeWidth=2;" vertex="1" parent="TnUPEMsU65kMXo9H1k3O-1">
          <mxGeometry x="2639" y="1311.2667261373774" width="171" height="77.55575379125781" as="geometry" />
        </mxCell>
        <mxCell id="TnUPEMsU65kMXo9H1k3O-12" value=" 配置中心 (Zookeeper)" style="whiteSpace=wrap;strokeWidth=2;" vertex="1" parent="TnUPEMsU65kMXo9H1k3O-1">
          <mxGeometry x="2373" y="1311.2667261373774" width="216" height="77.55575379125781" as="geometry" />
        </mxCell>
        <mxCell id="TnUPEMsU65kMXo9H1k3O-13" value=" AFA节点" style="whiteSpace=wrap;strokeWidth=2;" vertex="1" parent="TnUPEMsU65kMXo9H1k3O-1">
          <mxGeometry x="497" y="735.3434433541481" width="118" height="77.55575379125781" as="geometry" />
        </mxCell>
        <mxCell id="TnUPEMsU65kMXo9H1k3O-14" value="AFA5运维管理端集群 (2节点)" style="whiteSpace=wrap;strokeWidth=2;verticalAlign=top;" vertex="1" parent="TnUPEMsU65kMXo9H1k3O-1">
          <mxGeometry x="2746" y="610.392506690455" width="239" height="327.4576271186441" as="geometry" />
        </mxCell>
        <mxCell id="TnUPEMsU65kMXo9H1k3O-15" value=" AFA5节点 1" style="whiteSpace=wrap;strokeWidth=2;" vertex="1" parent="TnUPEMsU65kMXo9H1k3O-14">
          <mxGeometry x="58" y="61.757359500446036" width="139" height="77.55575379125781" as="geometry" />
        </mxCell>
        <mxCell id="TnUPEMsU65kMXo9H1k3O-16" value=" AFA5节点 2" style="whiteSpace=wrap;strokeWidth=2;" vertex="1" parent="TnUPEMsU65kMXo9H1k3O-14">
          <mxGeometry x="58" y="211.12399643175738" width="139" height="77.55575379125781" as="geometry" />
        </mxCell>
        <mxCell id="TnUPEMsU65kMXo9H1k3O-17" value="AFA服务网关集群 (2节点)" style="whiteSpace=wrap;strokeWidth=2;verticalAlign=top;" vertex="1" parent="TnUPEMsU65kMXo9H1k3O-1">
          <mxGeometry x="3035" y="610.392506690455" width="237" height="327.4576271186441" as="geometry" />
        </mxCell>
        <mxCell id="TnUPEMsU65kMXo9H1k3O-18" value=" 网关节点 1" style="whiteSpace=wrap;strokeWidth=2;" vertex="1" parent="TnUPEMsU65kMXo9H1k3O-17">
          <mxGeometry x="58" y="61.757359500446036" width="137" height="77.55575379125781" as="geometry" />
        </mxCell>
        <mxCell id="TnUPEMsU65kMXo9H1k3O-19" value=" 网关节点 2" style="whiteSpace=wrap;strokeWidth=2;" vertex="1" parent="TnUPEMsU65kMXo9H1k3O-17">
          <mxGeometry x="58" y="211.12399643175738" width="137" height="77.55575379125781" as="geometry" />
        </mxCell>
        <mxCell id="TnUPEMsU65kMXo9H1k3O-20" value="" style="whiteSpace=wrap;strokeWidth=2;" vertex="1" parent="TnUPEMsU65kMXo9H1k3O-1">
          <mxGeometry x="30" y="390" width="2190" height="590" as="geometry" />
        </mxCell>
        <mxCell id="TnUPEMsU65kMXo9H1k3O-21" value="业务集群 7: 支付类" style="whiteSpace=wrap;strokeWidth=2;verticalAlign=top;" vertex="1" parent="TnUPEMsU65kMXo9H1k3O-1">
          <mxGeometry x="358" y="559.9957894736841" width="218" height="327.4576271186441" as="geometry" />
        </mxCell>
        <mxCell id="TnUPEMsU65kMXo9H1k3O-22" value=" AFA节点" style="whiteSpace=wrap;strokeWidth=2;" vertex="1" parent="TnUPEMsU65kMXo9H1k3O-21">
          <mxGeometry x="58" y="61.757359500446036" width="118" height="77.55575379125781" as="geometry" />
        </mxCell>
        <mxCell id="TnUPEMsU65kMXo9H1k3O-23" value=" AFA节点" style="whiteSpace=wrap;strokeWidth=2;" vertex="1" parent="TnUPEMsU65kMXo9H1k3O-21">
          <mxGeometry x="58" y="211.12399643175738" width="118" height="77.55575379125781" as="geometry" />
        </mxCell>
        <mxCell id="TnUPEMsU65kMXo9H1k3O-24" value="业务集群 6: 运营管理" style="whiteSpace=wrap;strokeWidth=2;verticalAlign=top;" vertex="1" parent="TnUPEMsU65kMXo9H1k3O-1">
          <mxGeometry x="625" y="559.9957894736841" width="218" height="327.4576271186441" as="geometry" />
        </mxCell>
        <mxCell id="TnUPEMsU65kMXo9H1k3O-25" value=" AFA节点" style="whiteSpace=wrap;strokeWidth=2;" vertex="1" parent="TnUPEMsU65kMXo9H1k3O-24">
          <mxGeometry x="58" y="61.757359500446036" width="118" height="77.55575379125781" as="geometry" />
        </mxCell>
        <mxCell id="TnUPEMsU65kMXo9H1k3O-26" value=" AFA节点" style="whiteSpace=wrap;strokeWidth=2;" vertex="1" parent="TnUPEMsU65kMXo9H1k3O-24">
          <mxGeometry x="58" y="211.12399643175738" width="118" height="77.55575379125781" as="geometry" />
        </mxCell>
        <mxCell id="TnUPEMsU65kMXo9H1k3O-27" value="业务集群 5: 前置类" style="whiteSpace=wrap;strokeWidth=2;verticalAlign=top;" vertex="1" parent="TnUPEMsU65kMXo9H1k3O-1">
          <mxGeometry x="893" y="559.9957894736841" width="218" height="327.4576271186441" as="geometry" />
        </mxCell>
        <mxCell id="TnUPEMsU65kMXo9H1k3O-28" value=" AFA节点" style="whiteSpace=wrap;strokeWidth=2;" vertex="1" parent="TnUPEMsU65kMXo9H1k3O-27">
          <mxGeometry x="58" y="61.757359500446036" width="118" height="77.55575379125781" as="geometry" />
        </mxCell>
        <mxCell id="TnUPEMsU65kMXo9H1k3O-29" value=" AFA节点" style="whiteSpace=wrap;strokeWidth=2;" vertex="1" parent="TnUPEMsU65kMXo9H1k3O-27">
          <mxGeometry x="58" y="211.12399643175738" width="118" height="77.55575379125781" as="geometry" />
        </mxCell>
        <mxCell id="TnUPEMsU65kMXo9H1k3O-30" value="业务集群 4: 收单" style="whiteSpace=wrap;strokeWidth=2;verticalAlign=top;" vertex="1" parent="TnUPEMsU65kMXo9H1k3O-1">
          <mxGeometry x="1160" y="559.9957894736841" width="218" height="327.4576271186441" as="geometry" />
        </mxCell>
        <mxCell id="TnUPEMsU65kMXo9H1k3O-31" value=" AFA节点" style="whiteSpace=wrap;strokeWidth=2;" vertex="1" parent="TnUPEMsU65kMXo9H1k3O-30">
          <mxGeometry x="58" y="61.757359500446036" width="118" height="77.55575379125781" as="geometry" />
        </mxCell>
        <mxCell id="TnUPEMsU65kMXo9H1k3O-32" value=" AFA节点" style="whiteSpace=wrap;strokeWidth=2;" vertex="1" parent="TnUPEMsU65kMXo9H1k3O-30">
          <mxGeometry x="58" y="211.12399643175738" width="118" height="77.55575379125781" as="geometry" />
        </mxCell>
        <mxCell id="TnUPEMsU65kMXo9H1k3O-33" value="业务集群 3: 代收付" style="whiteSpace=wrap;strokeWidth=2;verticalAlign=top;" vertex="1" parent="TnUPEMsU65kMXo9H1k3O-1">
          <mxGeometry x="1428" y="559.9957894736841" width="218" height="327.4576271186441" as="geometry" />
        </mxCell>
        <mxCell id="TnUPEMsU65kMXo9H1k3O-34" value=" AFA节点" style="whiteSpace=wrap;strokeWidth=2;" vertex="1" parent="TnUPEMsU65kMXo9H1k3O-33">
          <mxGeometry x="58" y="61.757359500446036" width="118" height="77.55575379125781" as="geometry" />
        </mxCell>
        <mxCell id="TnUPEMsU65kMXo9H1k3O-35" value=" AFA节点" style="whiteSpace=wrap;strokeWidth=2;" vertex="1" parent="TnUPEMsU65kMXo9H1k3O-33">
          <mxGeometry x="58" y="211.12399643175738" width="118" height="77.55575379125781" as="geometry" />
        </mxCell>
        <mxCell id="TnUPEMsU65kMXo9H1k3O-40" value="核心服务组件集群 (3节点高可用)" style="whiteSpace=wrap;strokeWidth=2;" vertex="1" parent="TnUPEMsU65kMXo9H1k3O-1">
          <mxGeometry x="2338" y="1131.7395182872435" width="890" height="435.1739518287244" as="geometry" />
        </mxCell>
        <mxCell id="TnUPEMsU65kMXo9H1k3O-41" value="访问运维管理端" style="curved=1;startArrow=none;endArrow=block;exitX=0.5;exitY=0.99;entryX=0.5;entryY=0;rounded=0;" edge="1" parent="TnUPEMsU65kMXo9H1k3O-1" source="TnUPEMsU65kMXo9H1k3O-5" target="TnUPEMsU65kMXo9H1k3O-6">
          <mxGeometry relative="1" as="geometry">
            <Array as="points" />
          </mxGeometry>
        </mxCell>
        <mxCell id="TnUPEMsU65kMXo9H1k3O-42" value="业务交易请求" style="curved=1;startArrow=none;endArrow=block;exitX=0.5;exitY=0.99;entryX=0.5;entryY=0;rounded=0;" edge="1" parent="TnUPEMsU65kMXo9H1k3O-1" source="TnUPEMsU65kMXo9H1k3O-7" target="TnUPEMsU65kMXo9H1k3O-8">
          <mxGeometry relative="1" as="geometry">
            <Array as="points" />
          </mxGeometry>
        </mxCell>
        <mxCell id="TnUPEMsU65kMXo9H1k3O-49" value="" style="curved=1;startArrow=none;endArrow=block;exitX=0.5;exitY=1;entryX=0.5;entryY=0;rounded=0;" edge="1" parent="TnUPEMsU65kMXo9H1k3O-1" source="TnUPEMsU65kMXo9H1k3O-6" target="TnUPEMsU65kMXo9H1k3O-14">
          <mxGeometry relative="1" as="geometry">
            <Array as="points" />
          </mxGeometry>
        </mxCell>
        <mxCell id="TnUPEMsU65kMXo9H1k3O-50" value="" style="curved=1;startArrow=none;endArrow=block;exitX=0.5;exitY=1;entryX=0.5;entryY=0;rounded=0;" edge="1" parent="TnUPEMsU65kMXo9H1k3O-1" source="TnUPEMsU65kMXo9H1k3O-8" target="TnUPEMsU65kMXo9H1k3O-17">
          <mxGeometry relative="1" as="geometry">
            <Array as="points" />
          </mxGeometry>
        </mxCell>
        <mxCell id="TnUPEMsU65kMXo9H1k3O-2" value="业务集群 8: 国库财政资金" style="whiteSpace=wrap;strokeWidth=2;verticalAlign=top;" vertex="1" parent="TnUPEMsU65kMXo9H1k3O-1">
          <mxGeometry x="90" y="559.9957894736841" width="218" height="327.4576271186441" as="geometry" />
        </mxCell>
        <mxCell id="TnUPEMsU65kMXo9H1k3O-3" value=" AFA节点" style="whiteSpace=wrap;strokeWidth=2;" vertex="1" parent="TnUPEMsU65kMXo9H1k3O-2">
          <mxGeometry x="58" y="61.757359500446036" width="118" height="77.55575379125781" as="geometry" />
        </mxCell>
        <mxCell id="TnUPEMsU65kMXo9H1k3O-4" value=" AFA节点" style="whiteSpace=wrap;strokeWidth=2;" vertex="1" parent="TnUPEMsU65kMXo9H1k3O-2">
          <mxGeometry x="58" y="211.12399643175738" width="118" height="77.55575379125781" as="geometry" />
        </mxCell>
        <mxCell id="TnUPEMsU65kMXo9H1k3O-56" value="AFA业务集群区 (共8个业务集群)" style="text;strokeColor=none;align=center;fillColor=none;html=1;verticalAlign=middle;whiteSpace=wrap;rounded=0;" vertex="1" parent="TnUPEMsU65kMXo9H1k3O-1">
          <mxGeometry x="640" y="394.96" width="320" height="30" as="geometry" />
        </mxCell>
        <mxCell id="TnUPEMsU65kMXo9H1k3O-57" value="业务集群 4: 收单" style="whiteSpace=wrap;strokeWidth=2;verticalAlign=top;" vertex="1" parent="TnUPEMsU65kMXo9H1k3O-1">
          <mxGeometry x="1680" y="559.9957894736841" width="218" height="327.4576271186441" as="geometry" />
        </mxCell>
        <mxCell id="TnUPEMsU65kMXo9H1k3O-58" value=" AFA节点" style="whiteSpace=wrap;strokeWidth=2;" vertex="1" parent="TnUPEMsU65kMXo9H1k3O-57">
          <mxGeometry x="58" y="61.757359500446036" width="118" height="77.55575379125781" as="geometry" />
        </mxCell>
        <mxCell id="TnUPEMsU65kMXo9H1k3O-59" value=" AFA节点" style="whiteSpace=wrap;strokeWidth=2;" vertex="1" parent="TnUPEMsU65kMXo9H1k3O-57">
          <mxGeometry x="58" y="211.12399643175738" width="118" height="77.55575379125781" as="geometry" />
        </mxCell>
        <mxCell id="TnUPEMsU65kMXo9H1k3O-60" value="业务集群 3: 代收付" style="whiteSpace=wrap;strokeWidth=2;verticalAlign=top;" vertex="1" parent="TnUPEMsU65kMXo9H1k3O-1">
          <mxGeometry x="1948" y="559.9957894736841" width="218" height="327.4576271186441" as="geometry" />
        </mxCell>
        <mxCell id="TnUPEMsU65kMXo9H1k3O-61" value=" AFA节点" style="whiteSpace=wrap;strokeWidth=2;" vertex="1" parent="TnUPEMsU65kMXo9H1k3O-60">
          <mxGeometry x="58" y="61.757359500446036" width="118" height="77.55575379125781" as="geometry" />
        </mxCell>
        <mxCell id="TnUPEMsU65kMXo9H1k3O-62" value=" AFA节点" style="whiteSpace=wrap;strokeWidth=2;" vertex="1" parent="TnUPEMsU65kMXo9H1k3O-60">
          <mxGeometry x="58" y="211.12399643175738" width="118" height="77.55575379125781" as="geometry" />
        </mxCell>
        <mxCell id="TnUPEMsU65kMXo9H1k3O-63" value="Text" style="text;strokeColor=none;align=center;fillColor=none;html=1;verticalAlign=middle;whiteSpace=wrap;rounded=0;" vertex="1" parent="TnUPEMsU65kMXo9H1k3O-1">
          <mxGeometry x="2110" y="810" width="60" height="30" as="geometry" />
        </mxCell>
        <mxCell id="TnUPEMsU65kMXo9H1k3O-55" value="Text" style="text;strokeColor=none;align=center;fillColor=none;html=1;verticalAlign=middle;whiteSpace=wrap;rounded=0;" vertex="1" parent="1">
          <mxGeometry x="1230" y="680" width="60" height="30" as="geometry" />
        </mxCell>
      </root>
    </mxGraphModel>
  </diagram>
</mxfile>
